<?xml version="1.0" standalone="no"?>
<!DOCTYPE svg PUBLIC "-//W3C//DTD SVG 20010904//EN"
 "http://www.w3.org/TR/2001/REC-SVG-20010904/DTD/svg10.dtd">
<svg version="1.0" xmlns="http://www.w3.org/2000/svg"
 width="684.000000pt" height="386.000000pt" viewBox="0 0 684.000000 386.000000"
 preserveAspectRatio="xMidYMid meet">

<g transform="translate(0.000000,386.000000) scale(0.100000,-0.100000)"
fill="#000000" stroke="none">
<path d="M4450 3112 c-18 -9 -38 -28 -45 -42 -50 -100 -58 -155 -25 -185 23
-21 27 -70 5 -79 -17 -6 -20 -43 -6 -79 5 -13 15 -68 21 -123 6 -54 24 -148
40 -209 15 -60 31 -140 35 -177 l7 -67 41 22 c23 12 67 23 100 25 l58 4 -2 37
c-2 25 1 35 10 33 11 -2 12 24 6 135 -6 123 -10 146 -37 208 -30 68 -31 72
-24 187 7 132 10 127 -68 103 -66 -20 -79 -20 -66 3 41 73 51 147 24 187 -21
33 -37 36 -74 17z"/>
<path d="M4713 3023 c-21 -7 -14 -56 33 -223 24 -87 34 -189 44 -430 5 -124
13 -238 18 -255 8 -28 11 -30 58 -29 27 0 85 6 129 13 44 7 108 14 143 16 69
4 92 16 92 49 0 20 -4 22 -55 20 -76 -3 -146 -12 -238 -31 -56 -11 -81 -13
-89 -5 -18 18 -27 92 -27 232 -1 159 -25 386 -52 485 -10 39 -19 79 -19 90 -1
31 -24 73 -37 68z"/>
<path d="M5090 3020 c-8 -5 -49 -21 -91 -35 -71 -24 -76 -27 -71 -50 6 -32 19
-31 117 8 70 29 80 37 83 60 4 28 -11 35 -38 17z"/>
<path d="M4089 2906 c-36 -40 -85 -107 -110 -149 -24 -42 -46 -76 -49 -76 -3
0 -26 27 -52 60 -62 79 -189 219 -200 219 -15 0 -37 -76 -62 -221 l-6 -36
-173 -6 c-94 -4 -246 -13 -337 -22 -169 -16 -542 -64 -548 -70 -2 -2 -1 -17 3
-33 6 -28 7 -29 48 -20 23 5 78 13 122 18 322 34 534 52 682 58 l171 7 5 -40
c3 -21 1 -77 -4 -123 -9 -80 -12 -87 -54 -135 -51 -58 -63 -98 -17 -54 28 27
45 28 36 2 -11 -28 15 -55 52 -55 19 0 62 -9 95 -20 33 -11 64 -18 70 -15 5 4
9 19 9 35 0 16 4 31 9 34 4 3 11 35 14 71 7 71 26 147 37 143 4 -2 28 -27 54
-57 100 -113 129 -125 146 -58 14 52 40 107 52 107 4 0 8 -30 8 -67 0 -73 32
-287 51 -340 12 -37 12 -37 112 -23 152 22 140 17 133 56 -5 26 -4 34 8 34 26
0 26 17 1 71 -13 30 -36 97 -50 149 -20 77 -55 195 -92 310 -2 8 -13 53 -23
100 -32 148 -53 220 -64 220 -6 0 -41 -33 -77 -74z"/>
<path d="M2000 2881 c-97 -18 -128 -31 -159 -66 -40 -46 -42 -76 -2 -41 23 20
138 46 205 46 63 0 192 -26 201 -41 4 -5 23 -9 44 -9 30 0 44 8 80 44 53 54
48 86 -5 35 -34 -33 -34 -33 -67 -16 -86 45 -206 64 -297 48z"/>
<path d="M1617 2867 c-23 -59 -16 -185 10 -169 10 6 11 30 5 98 -4 55 -10 82
-15 71z"/>
<path d="M5025 2661 c-35 -5 -40 -9 -37 -31 4 -35 10 -38 85 -32 l67 4 0 34
c0 33 -1 34 -37 33 -21 -1 -56 -5 -78 -8z"/>
<path d="M1454 2588 c3 -13 6 -40 6 -60 0 -27 8 -44 31 -67 27 -28 37 -31 89
-31 l58 0 6 -57 c4 -32 20 -179 36 -328 17 -148 30 -276 30 -283 0 -12 12 -14
66 -8 82 8 106 20 102 49 -3 21 -7 22 -74 19 l-70 -4 -12 119 c-22 232 -53
518 -57 539 -3 14 -12 21 -27 21 -90 -1 -141 27 -153 83 -4 18 -13 30 -22 30
-11 0 -14 -6 -9 -22z"/>
<path d="M2280 2575 c-52 -7 -96 -14 -97 -14 -2 -1 -3 -15 -3 -32 l0 -32 68 7
c37 4 81 9 98 12 30 6 31 5 38 -42 3 -26 6 -60 6 -75 0 -31 17 -39 26 -14 4 8
2 56 -2 107 -7 71 -13 93 -24 94 -8 1 -58 -4 -110 -11z"/>
<path d="M1877 2517 c-34 -8 -46 -14 -42 -25 3 -7 5 -21 5 -29 0 -12 8 -14 44
-9 l45 7 6 -48 c22 -164 44 -222 105 -277 68 -62 119 -79 204 -71 57 5 81 13
122 40 l52 34 6 -42 c3 -23 10 -93 17 -154 13 -128 11 -125 105 -102 40 10 45
14 42 38 -3 25 -5 26 -55 23 -61 -4 -57 -14 -74 166 -9 94 -16 132 -25 132 -7
0 -16 -5 -19 -10 -4 -6 -25 -20 -48 -32 -63 -32 -187 -32 -242 1 -58 35 -94
70 -117 114 -21 41 -48 167 -48 223 0 38 -2 38 -83 21z"/>
<path d="M2580 2389 c0 -27 18 -59 33 -59 16 0 77 -62 77 -78 0 -20 18 -14 25
8 16 50 -23 118 -79 140 -41 15 -56 12 -56 -11z"/>
<path d="M3230 2294 c-15 -38 -13 -44 18 -44 16 0 61 -21 107 -50 44 -27 82
-50 86 -50 4 0 9 16 11 35 4 32 0 37 -47 68 -112 75 -158 86 -175 41z"/>
<path d="M3052 2214 c-20 -89 2 -175 65 -255 15 -20 33 -45 38 -54 10 -17 15
-16 75 8 36 14 66 29 67 34 2 5 -3 17 -10 27 -12 17 -14 17 -51 0 l-37 -18
-35 39 c-49 56 -86 139 -94 210 l-6 60 -12 -51z"/>
<path d="M2876 2144 c-38 -33 -116 -64 -162 -64 -18 0 -23 7 -29 40 -7 43 -11
46 -37 27 -15 -12 -15 -17 4 -75 14 -44 25 -62 37 -62 42 0 120 32 159 66 38
32 79 91 70 99 -2 2 -21 -12 -42 -31z"/>
<path d="M4590 1949 c-608 -68 -2663 -295 -2763 -305 -37 -4 -70 -11 -73 -16
-7 -11 26 -330 35 -339 3 -4 40 -3 81 2 187 22 447 51 695 79 149 17 344 39
435 50 91 11 307 36 480 55 173 20 583 67 910 105 327 38 643 75 702 81 59 7
113 16 119 19 8 5 6 49 -5 161 -9 85 -16 157 -16 162 0 12 -55 7 -600 -54z
m424 -54 c4 -11 13 -14 33 -9 23 5 26 4 16 -7 -18 -18 -16 -39 4 -61 15 -17
15 -18 -14 -18 -23 0 -33 -6 -43 -27 l-12 -28 -11 23 c-7 15 -19 22 -39 22
-30 0 -35 9 -16 28 10 10 10 17 0 32 -11 18 -10 20 13 20 14 0 29 8 35 20 13
24 26 26 34 5z m-659 -55 c9 -15 -12 -38 -38 -42 -34 -5 -44 -78 -11 -78 16 0
19 17 3 22 -21 7 3 38 31 38 27 0 27 -1 22 -47 -6 -54 -14 -63 -59 -63 -67 0
-86 107 -28 157 27 24 69 30 80 13z m443 -27 c3 -31 1 -33 -27 -33 -17 0 -31
-4 -31 -10 0 -5 14 -10 30 -10 17 0 30 -4 30 -8 0 -16 -25 -32 -50 -32 -35 0
-50 17 -50 59 0 46 25 73 64 69 27 -3 31 -7 34 -35z m-622 -10 c-3 -21 -6 -61
-6 -89 l0 -52 -46 -7 c-53 -8 -64 1 -64 50 0 38 25 75 51 75 13 0 19 7 19 23
0 29 7 37 33 37 17 0 19 -5 13 -37z m455 30 c29 18 49 1 49 -40 0 -57 -10 -83
-31 -83 -16 0 -19 8 -19 46 0 27 -4 43 -10 39 -5 -3 -10 -23 -10 -45 0 -25 -5
-40 -16 -44 -24 -9 -24 -9 -24 39 0 25 -4 45 -10 45 -5 0 -10 -20 -10 -45 0
-41 -2 -45 -25 -45 -22 0 -25 4 -24 33 3 70 12 92 41 92 15 1 30 4 34 8 4 3
14 3 22 -2 9 -5 23 -5 33 2z m-163 -25 c7 -7 12 -35 12 -64 l0 -52 -37 -5
c-21 -2 -44 0 -51 6 -19 15 -10 50 16 63 32 16 41 28 15 22 -27 -7 -39 18 -15
31 23 14 46 13 60 -1z m-440 -50 c20 -20 15 -85 -8 -108 -26 -26 -45 -25 -71
1 -16 16 -20 28 -15 52 11 57 62 87 94 55z m-538 -42 c0 -87 -11 -136 -31
-136 -16 0 -19 8 -19 53 0 87 10 127 31 127 16 0 19 -8 19 -44z m408 28 c46
-32 16 -124 -41 -124 -33 0 -47 18 -47 61 0 29 6 43 26 58 32 25 33 25 62 5z
m-482 -55 c-3 -34 -6 -75 -6 -90 0 -23 -4 -29 -23 -29 -22 0 -22 3 -19 78 4
95 6 102 33 102 21 0 22 -3 15 -61z m324 15 l6 -29 7 33 c5 23 12 32 27 32 22
0 21 -13 -5 -90 -15 -45 -55 -56 -55 -16 0 36 -16 33 -24 -5 -5 -24 -10 -30
-28 -27 -13 2 -24 10 -25 18 -13 106 -20 107 -47 15 -24 -80 -41 -105 -71
-105 -29 0 -32 12 -9 35 14 14 15 22 2 79 l-15 64 24 5 c20 4 23 0 23 -29 0
-19 5 -34 10 -34 6 0 10 10 10 23 0 34 11 44 58 52 40 6 42 6 42 -19 0 -14 5
-26 10 -26 6 0 10 8 10 18 0 21 20 44 35 39 5 -2 12 -17 15 -33z m-526 -6 c8
-13 7 -23 -2 -39 -10 -15 -11 -24 -3 -32 31 -31 -2 -71 -68 -82 l-44 -7 6 38
c4 22 7 60 7 86 0 43 2 47 28 51 44 7 64 3 76 -15z m127 -29 c12 -23 6 -74
-12 -96 -14 -16 -61 -17 -77 -1 -17 17 -15 78 5 100 23 25 69 24 84 -3z m-673
-11 c-4 -29 -38 -38 -38 -10 0 22 8 32 27 32 9 0 13 -8 11 -22z m365 -5 c11
-10 -13 -32 -29 -26 -8 3 -14 0 -14 -5 0 -6 9 -14 20 -17 14 -4 20 -15 20 -35
0 -35 -30 -55 -67 -45 -20 5 -23 8 -13 20 7 8 19 15 26 15 21 0 17 17 -6 23
-25 7 -27 52 -2 66 20 12 56 14 65 4z m-107 -65 c-3 -34 -7 -62 -9 -63 -1 -2
-23 -6 -49 -9 l-48 -7 0 65 c0 59 2 66 20 66 17 0 20 -7 20 -45 0 -25 5 -45
10 -45 6 0 10 20 10 44 0 43 7 53 39 55 11 1 13 -11 7 -61z m-608 30 c-4 -29
-38 -38 -38 -10 0 22 8 32 27 32 9 0 13 -8 11 -22z m74 -68 c-3 -89 -4 -90
-29 -90 -26 0 -26 0 -19 61 3 34 6 75 6 90 0 23 4 29 23 29 21 0 22 -2 19 -90z
m398 61 c27 -52 -2 -111 -54 -111 -22 0 -36 6 -40 16 -11 29 -6 77 11 96 22
24 69 24 83 -1z m-180 -16 c0 -15 -6 -25 -14 -25 -14 0 -26 -29 -26 -67 0 -16
-6 -23 -20 -23 -19 0 -21 5 -18 63 3 60 4 62 30 62 14 0 30 3 34 8 12 11 14 9
14 -18z m56 -21 c-3 -26 -6 -55 -6 -65 0 -12 -7 -19 -20 -19 -18 0 -20 7 -20
59 0 58 6 68 39 70 11 1 12 -9 7 -45z m-480 -24 c9 0 14 11 14 30 0 25 4 30
25 30 28 0 31 -17 19 -117 -6 -46 -10 -53 -29 -53 -19 0 -23 5 -21 28 2 39
-18 39 -24 0 -4 -25 -11 -34 -27 -36 -21 -3 -23 1 -23 36 0 76 12 131 29 134
11 2 17 -5 19 -24 2 -16 9 -28 18 -28z m318 19 c5 -14 6 -42 2 -61 -6 -31 -11
-36 -39 -41 -45 -6 -57 1 -57 34 0 23 7 32 33 43 26 12 28 15 10 15 -27 1 -40
20 -22 32 26 17 63 6 73 -22z m-184 -16 c0 -64 -12 -103 -31 -103 -16 0 -19 8
-19 58 0 64 4 72 32 72 13 0 18 -7 18 -27z m-318 -43 c17 0 18 -2 8 -15 -10
-12 -10 -19 -2 -27 19 -19 14 -26 -13 -20 -19 3 -25 0 -25 -14 -1 -18 -1 -18
-14 -1 -7 9 -23 17 -35 17 -19 0 -20 2 -10 22 9 16 9 23 0 26 -6 2 -11 8 -11
14 0 5 9 6 21 3 16 -5 22 -2 26 16 l6 23 15 -22 c8 -12 23 -22 34 -22z"/>
<path d="M4740 1810 c0 -5 5 -10 10 -10 6 0 10 5 10 10 0 6 -4 10 -10 10 -5 0
-10 -4 -10 -10z"/>
<path d="M4107 1733 c-13 -12 -7 -43 8 -43 9 0 15 9 15 25 0 24 -10 32 -23 18z"/>
<path d="M4420 1730 c0 -5 5 -10 10 -10 6 0 10 5 10 10 0 6 -4 10 -10 10 -5 0
-10 -4 -10 -10z"/>
<path d="M3980 1705 c0 -14 5 -25 10 -25 6 0 10 11 10 25 0 14 -4 25 -10 25
-5 0 -10 -11 -10 -25z"/>
<path d="M3857 1714 c-4 -4 -7 -18 -7 -31 0 -28 23 -27 28 1 4 20 -11 40 -21
30z"/>
<path d="M3150 1666 c0 -9 7 -16 16 -16 17 0 14 22 -4 28 -7 2 -12 -3 -12 -12z"/>
<path d="M3150 1605 c0 -8 5 -15 10 -15 6 0 10 7 10 15 0 8 -4 15 -10 15 -5 0
-10 -7 -10 -15z"/>
<path d="M3280 1625 c0 -28 15 -34 24 -9 10 25 7 34 -9 34 -9 0 -15 -9 -15
-25z"/>
<path d="M2730 1565 c0 -14 4 -25 9 -25 12 0 23 29 15 41 -10 18 -24 9 -24
-16z"/>
<path d="M2445 1510 c-3 -5 -2 -10 4 -10 5 0 13 5 16 10 3 6 2 10 -4 10 -5 0
-13 -4 -16 -10z"/>
<path d="M1181 983 c-18 -71 -34 -164 -28 -169 10 -10 27 7 27 27 0 29 38 25
46 -6 9 -36 35 -33 28 3 -22 110 -41 176 -51 179 -7 3 -16 -12 -22 -34z m29
-73 c0 -16 -4 -30 -10 -30 -11 0 -14 43 -3 53 11 12 13 8 13 -23z"/>
<path d="M1330 915 c0 -87 3 -105 15 -105 11 0 15 12 15 45 0 57 14 58 32 3 8
-24 22 -44 31 -46 15 -3 15 0 0 43 -11 34 -12 50 -4 58 16 16 13 73 -5 91 -8
9 -31 16 -50 16 l-34 0 0 -105z m65 40 c0 -43 -29 -40 -33 3 -3 28 0 33 15 30
13 -2 18 -12 18 -33z"/>
<path d="M1520 915 l0 -105 40 0 c29 0 40 4 40 15 0 10 -10 15 -30 15 -27 0
-30 3 -30 30 0 27 3 30 30 30 20 0 30 5 30 15 0 10 -10 15 -30 15 -27 0 -30 3
-30 30 0 27 3 30 30 30 20 0 30 5 30 15 0 11 -11 15 -40 15 l-40 0 0 -105z"/>
<path d="M1780 1017 c0 -2 9 -30 20 -62 11 -32 20 -78 20 -102 0 -32 4 -43 15
-43 11 0 15 11 15 43 0 24 9 70 20 102 24 69 24 65 5 65 -8 0 -19 -17 -26 -42
l-12 -43 -14 43 c-8 23 -21 42 -29 42 -8 0 -14 -2 -14 -3z"/>
<path d="M1976 998 c-22 -31 -22 -151 0 -172 18 -19 55 -21 72 -4 19 19 16
163 -4 182 -22 22 -50 20 -68 -6z m52 -87 c3 -65 1 -72 -15 -69 -14 3 -19 15
-21 62 -3 66 2 90 21 84 8 -3 13 -30 15 -77z"/>
<path d="M2152 925 c3 -110 14 -129 62 -107 25 11 26 14 26 107 0 78 -3 95
-15 95 -12 0 -15 -17 -15 -90 0 -72 -3 -90 -15 -90 -11 0 -15 19 -17 87 -2 59
-7 88 -16 91 -10 3 -12 -18 -10 -93z"/>
<path d="M2430 1005 c0 -8 7 -15 15 -15 12 0 15 -17 15 -90 0 -73 3 -90 15
-90 12 0 15 17 15 90 0 73 3 90 15 90 8 0 15 7 15 15 0 11 -12 15 -45 15 -33
0 -45 -4 -45 -15z"/>
<path d="M2597 1013 c-3 -7 -1 -169 2 -195 1 -5 6 -8 11 -8 6 0 10 20 10 45 0
38 3 45 20 45 17 0 20 -7 20 -45 0 -33 4 -45 15 -45 12 0 15 18 15 105 0 87
-3 105 -15 105 -11 0 -15 -12 -15 -45 0 -38 -3 -45 -20 -45 -17 0 -20 7 -20
45 0 40 -12 59 -23 38z"/>
<path d="M2780 916 l0 -106 45 0 c33 0 45 4 45 15 0 10 -10 15 -30 15 -27 0
-30 3 -30 30 0 25 4 30 25 30 16 0 25 6 25 15 0 9 -9 15 -25 15 -21 0 -25 5
-25 30 0 27 3 30 31 30 47 0 30 24 -19 28 l-42 3 0 -105z"/>
<path d="M3060 927 c0 -95 8 -117 41 -117 38 0 49 27 49 121 0 72 -3 89 -15
89 -12 0 -15 -17 -15 -91 0 -81 -2 -90 -17 -87 -15 3 -18 17 -21 91 -4 117
-22 112 -22 -6z"/>
<path d="M3240 915 l0 -105 46 0 c50 0 59 22 11 28 l-27 3 0 90 c0 72 -3 89
-15 89 -12 0 -15 -18 -15 -105z"/>
<path d="M3370 1005 c0 -8 7 -15 15 -15 12 0 15 -17 15 -90 0 -73 3 -90 15
-90 12 0 15 17 15 90 0 73 3 90 15 90 8 0 15 7 15 15 0 11 -12 15 -45 15 -33
0 -45 -4 -45 -15z"/>
<path d="M3540 916 c0 -89 3 -106 15 -106 13 0 15 16 13 102 -2 70 -7 103 -15
106 -10 3 -13 -22 -13 -102z"/>
<path d="M3657 1014 c-4 -4 -7 -52 -7 -106 0 -80 3 -98 15 -98 12 0 15 14 16
63 l1 62 15 -42 c8 -24 18 -43 23 -43 5 0 15 19 23 43 l15 42 1 -62 c1 -49 4
-63 16 -63 12 0 15 18 15 106 0 94 -2 105 -17 102 -10 -2 -23 -22 -32 -51 -8
-26 -17 -47 -21 -47 -4 0 -13 21 -21 47 -14 45 -28 61 -42 47z"/>
<path d="M3907 1013 c-2 -5 -12 -44 -21 -88 -10 -44 -20 -88 -22 -97 -3 -11 0
-18 9 -18 8 0 18 11 21 25 4 14 13 25 21 25 9 0 20 -11 25 -25 5 -14 16 -25
23 -25 12 0 11 15 -5 83 -10 45 -21 92 -23 105 -5 22 -20 29 -28 15z m23 -109
c0 -13 -4 -24 -10 -24 -5 0 -10 14 -10 31 0 17 4 28 10 24 6 -3 10 -17 10 -31z"/>
<path d="M4020 1006 c0 -9 7 -16 15 -16 12 0 15 -17 15 -90 0 -73 3 -90 15
-90 12 0 15 17 15 90 0 85 1 90 21 90 42 0 12 25 -34 28 -37 2 -47 0 -47 -12z"/>
<path d="M4190 915 l0 -105 45 0 c33 0 45 4 45 15 0 10 -10 15 -30 15 -27 0
-30 3 -30 30 0 25 4 30 25 30 16 0 25 6 25 15 0 9 -9 15 -25 15 -21 0 -25 5
-25 30 0 27 3 30 30 30 20 0 30 5 30 15 0 11 -12 15 -45 15 l-45 0 0 -105z"/>
<path d="M4470 915 c0 -87 3 -105 15 -105 11 0 15 12 15 45 0 42 2 45 26 45
31 0 28 23 -4 28 -17 3 -22 10 -22 33 0 26 4 29 30 29 22 0 28 4 24 15 -4 10
-20 15 -45 15 l-39 0 0 -105z"/>
<path d="M4637 1013 c-4 -3 -7 -51 -7 -105 0 -80 3 -98 15 -98 12 0 15 18 15
105 0 96 -5 117 -23 98z"/>
<path d="M4750 915 l0 -105 45 0 c33 0 45 4 45 15 0 10 -10 15 -30 15 l-30 0
0 90 c0 73 -3 90 -15 90 -12 0 -15 -18 -15 -105z"/>
<path d="M4920 916 c0 -90 2 -106 16 -106 13 0 15 9 12 50 -3 55 7 67 17 19 8
-38 25 -33 41 12 l12 34 1 -57 c1 -45 4 -58 16 -58 12 0 15 18 15 105 0 84 -3
105 -14 105 -9 0 -22 -23 -33 -57 l-19 -57 -20 54 c-32 89 -44 77 -44 -44z"/>
<path d="M5140 916 c0 -89 3 -106 15 -106 13 0 15 16 13 102 -2 70 -7 103 -15
106 -10 3 -13 -22 -13 -102z"/>
<path d="M5257 1013 c-4 -3 -7 -51 -7 -105 l0 -98 45 0 c33 0 45 4 45 15 0 10
-10 15 -30 15 -27 0 -30 3 -30 30 0 25 4 30 25 30 16 0 25 6 25 15 0 9 -9 15
-25 15 -21 0 -25 5 -25 30 0 27 3 30 30 30 20 0 30 5 30 15 0 11 -11 15 -38
15 -21 0 -42 -3 -45 -7z"/>
<path d="M5426 998 c-9 -12 -16 -26 -16 -30 0 -14 28 -8 34 7 3 8 10 15 16 15
15 0 12 -52 -5 -74 -18 -24 -20 -56 -2 -56 15 0 47 75 47 111 0 49 -47 66 -74
27z"/>
<path d="M5440 825 c0 -8 7 -15 15 -15 8 0 15 7 15 15 0 8 -7 15 -15 15 -8 0
-15 -7 -15 -15z"/>
<path d="M355 102 c54 -14 349 -16 3020 -19 1968 -2 2982 0 3025 7 36 5 83 14
105 19 24 5 -1247 9 -3085 9 -2879 0 -3120 -1 -3065 -16z"/>
</g>
</svg>
